# xmcd
#
# Track frame offsets:
#	150
#	17814
#	30816
#	49695
#	66977
#	80271
#	96209
#	114286
#	133667
#	149350
#	163461
#	180779
#	195316
#	212069
#	231764
#	250760
#	269655
#	285534
#	299057
#	314320
#
# Disc length: 4387 seconds
#
# Revision: 0
# Processed by: cddbd v1.5.2PL0 Copyright (c) Steve Scherf et al.
# Submitted via: audiograbber 1.83.01
#
DISCID=1f112114
DTITLE=Intocable - Exitos
DYEAR=2000
DGENRE=Ranchero
TTITLE0=Intocable 1
TTITLE1=Intocable 2
TTITLE2=Alguien te va a hacer llorar
TTITLE3=Dame un Besito
TTITLE4=Intocable 3
TTITLE5=Intocable 4
TTITLE6=Por Ella
TTITLE7=Sueña
TTITLE8=Para recuperarte
TTITLE9=Intocable 5
TTITLE10=Vuelve
TTITLE11=Y todo para que?
TTITLE12=Contra viento y Marea
TTITLE13=Hoy me vas a perder
TTITLE14=Intocable 6
TTITLE15=No te voy a Olvidar
TTITLE16=Intocable 7
TTITLE17=Soñador Eterno
TTITLE18=Intocable 8
TTITLE19=Enseñame
EXTD=
EXTT0=
EXTT1=
EXTT2=
EXTT3=
EXTT4=
EXTT5=
EXTT6=
EXTT7=
EXTT8=
EXTT9=
EXTT10=
EXTT11=
EXTT12=
EXTT13=
EXTT14=
EXTT15=
EXTT16=
EXTT17=
EXTT18=
EXTT19=
PLAYORDER=
